#!OML:ASF F:\VICON\USERDATA\INSTALL\Justin_Nancy\Justin_Nancy.ASF
:FULLY-SPECIFIED
:DEGREES
1
root -12.6403 17.0191 -28.9802 -5.35348 0.546267 -5.13188
lowerback 12.4457 0.936095 1.94763
upperback 0.416941 1.85639 4.83536
thorax -6.66132 0.928938 3.68897
lowerneck -7.14819 -3.0103 -11.776
upperneck 17.9221 -3.49329 5.74702
head 6.96373 -1.99505 3.53326
rclavicle 6.8208e-015 -1.90833e-014
rhumerus -48.4764 25.2528 -95.6359
rradius 112.709
rwrist -4.95967
rhand -13.6271 21.0378
rfingers 7.12502
rthumb 12.4887 -8.56903
lclavicle 6.8208e-015 -1.90833e-014
lhumerus -69.0501 -3.68352 96.218
lradius 93.3354
lwrist 31.0579
lhand -18.6169 7.24235
lfingers 7.12502
lthumb 7.67493 37.0831
rfemur 0.823116 1.72752 26.9104
rtibia 56.321
rfoot 9.02708 -0.986184
rtoes -6.90477
lfemur -33.3728 2.32496 -21.5493
ltibia 26.9944
lfoot 8.68886 1.58753
ltoes -16.1988
2
root -12.6346 17.0666 -28.4315 -5.8712 0.913078 -5.31543
lowerback 12.7982 0.861421 1.60935
upperback 0.235019 1.74858 5.00583
thorax -7.0654 0.892852 4.08608
lowerneck -6.56735 -2.90746 -11.8327
upperneck 18.3108 -3.41409 5.69672
head 6.97987 -1.9805 3.54271
rclavicle -1.21725e-014 -5.08889e-014
rhumerus -49.2636 25.615 -96.1017
rradius 113.32
rwrist -4.65254
rhand -12.6986 34.2193
rfingers 7.12502
rthumb 13.3837 4.66916
lclavicle -1.21725e-014 -5.08889e-014
lhumerus -71.0351 -3.04233 96.2903
lradius 95.1962
lwrist 31.9111
lhand -17.9545 7.14736
lfingers 7.12502
lthumb 8.31427 36.9637
rfemur 0.572641 1.55332 26.8857
rtibia 58.094
rfoot 10.8091 1.76245
rtoes -5.57961
lfemur -31.6416 2.51275 -21.8536
ltibia 22.468
lfoot 11.728 2.67399
ltoes -14.7162
3
root -12.6173 17.0869 -27.8952 -5.7129 -0.561412 -5.72561
lowerback 12.4035 1.17346 1.19053
upperback -0.124362 2.14442 5.52719
thorax -7.29188 1.11724 4.81981
lowerneck -4.99662 -2.61179 -12.3074
upperneck 18.4053 -3.12191 5.55443
head 6.71557 -1.9071 3.61302
rclavicle -9.86469e-015 -5.32743e-014
rhumerus -50.3963 26.7722 -96.7519
rradius 113.619
rwrist -3.97867
rhand -12.8278 34.6184
rfingers 7.12502
rthumb 13.2592 5.06013
lclavicle -9.86469e-015 -5.32743e-014
lhumerus -73.0496 -1.56392 96.3873
lradius 96.9677
lwrist 32.6282
lhand -17.8381 7.37675
lfingers 7.12502
lthumb 8.42663 37.1886
rfemur -0.236328 3.36956 27.1051
rtibia 60.553
rfoot 10.3549 2.43374
rtoes -5.46947
lfemur -31.3723 4.03233 -21.6701
ltibia 19.9027
lfoot 13.764 4.63512
ltoes -11.9001
4
root -12.5932 17.1061 -27.3233 -6.24534 0.489652 -5.95993
lowerback 12.0528 0.639925 1.11588
upperback -0.0873944 1.41527 5.67957
thorax -7.00231 0.764316 5.16202
lowerneck -4.17363 -2.43274 -12.554
upperneck 18.3345 -2.94945 5.52136
head 6.53732 -1.85279 3.66188
rclavicle 3.80176e-015 3.02153e-014
rhumerus -50.9486 27.4925 -97.4607
rradius 113.701
rwrist -3.21868
rhand -14.2378 34.3741
rfingers 7.12502
rthumb 11.8998 4.7323
lclavicle 3.80176e-015 3.02153e-014
lhumerus -74.3647 -0.617421 96.2385
lradius 98.771
lwrist 32.8603
lhand -18.0644 7.61294
lfingers 7.12502
lthumb 8.20818 37.4335
rfemur -0.806729 2.37192 26.965
rtibia 62.7953
rfoot 10.9263 1.68886
rtoes -11.2202
lfemur -30.2497 4.4797 -22.5103
ltibia 17.5407
lfoot 15.9872 5.48622
ltoes -8.4126
5
root -12.5704 17.0921 -26.7698 -6.73954 0.832513 -6.27195
lowerback 11.9963 0.395685 1.11743
upperback -0.0702318 1.09828 5.85133
thorax -6.92975 0.611733 5.40437
lowerneck -3.86737 -2.25124 -12.6287
upperneck 18.4598 -2.71516 5.40604
head 6.50257 -1.76041 3.65729
rclavicle 1.16538e-014 -3.49861e-014
rhumerus -51.3025 27.6738 -97.8861
rradius 113.817
rwrist -3.6076
rhand -13.5377 26.5035
rfingers 7.12502
rthumb 12.5748 -3.0981
lclavicle 1.16538e-014 -3.49861e-014
lhumerus -75.5885 0.163763 96.2751
lradius 100.679
lwrist 32.433
lhand -18.3413 7.70999
lfingers 7.12502
lthumb 7.94093 37.5408
rfemur -1.26604 1.86039 26.8219
rtibia 65.5434
rfoot 8.98686 -0.612939
rtoes -10.8541
lfemur -29.5734 4.87625 -22.8473
ltibia 16.5726
lfoot 18.013 7.76668
ltoes -3.03456
6
root -12.5558 17.0553 -26.2356 -7.3156 0.979736 -6.71223
lowerback 12.2759 0.42499 1.57502
upperback 0.180707 1.19412 5.7572
thorax -6.81556 0.637467 5.01955
lowerneck -4.4413 -2.3911 -12.3274
upperneck 18.7963 -2.89698 5.56269
head 6.7222 -1.81613 3.6458
rclavicle 1.23246e-014 4.13472e-014
rhumerus -50.7786 26.5899 -97.9747
rradius 113.65
rwrist -4.47924
rhand -12.9209 24.448
rfingers 7.12502
rthumb 13.1695 -5.11604
lclavicle 1.23246e-014 4.13472e-014
lhumerus -76.0667 -0.18721 96.269
lradius 102.554
lwrist 32.1567
lhand -18.3517 8.43096
lfingers 7.12502
lthumb 7.93089 38.2622
rfemur -1.8417 1.53521 26.8292
rtibia 68.4741
rfoot 7.63582 -3.51402
rtoes -7.45768
lfemur -28.9608 4.98615 -22.7897
ltibia 16.469
lfoot 20.2561 10.0925
ltoes 0.390963
7
root -12.5419 17.0013 -25.7145 -7.69695 1.06437 -7.13767
lowerback 12.5482 0.752716 2.54472
upperback 0.740525 1.71272 5.2398
thorax -6.36366 0.846565 3.80576
lowerneck -6.40733 -3.06281 -11.22
upperneck 19.2667 -3.74283 5.63915
head 7.27628 -2.12056 3.40587
rclavicle -1.43684e-014 -6.99722e-014
rhumerus -49.0201 24.1361 -97.7586
rradius 113.228
rwrist -5.32485
rhand -12.4565 24.4957
rfingers 7.12502
rthumb 13.6171 -5.03888
lclavicle -1.43684e-014 -6.99722e-014
lhumerus -75.3077 -2.04067 96.0644
lradius 104.181
lwrist 32.2347
lhand -18.4679 8.80504
lfingers 7.12502
lthumb 7.81877 38.6405
rfemur -3.41728 1.14979 26.7628
rtibia 71.7161
rfoot 6.88804 -6.92148
rtoes -4.09041
lfemur -28.8771 5.08731 -22.7711
ltibia 17.3607
lfoot 22.969 10.7664
ltoes 0.6925
8
root -12.5304 16.94 -25.1965 -8.16572 0.755159 -7.47313
lowerback 12.8972 1.36527 3.438
upperback 1.9 2.56278 4.66829
thorax -5.30066 1.2383 2.53276
lowerneck -10.7629 -4.0626 -9.88752
upperneck 20.3875 -4.92463 5.70008
head 8.50666 -2.52636 3.04387
rclavicle 7.23079e-015 1.55052e-014
rhumerus -45.8055 21.1401 -97.0274
rradius 112.751
rwrist -6.66886
rhand -11.4871 25.0536
rfingers 7.12502
rthumb 14.5512 -4.41599
lclavicle 7.23079e-015 1.55052e-014
lhumerus -72.8051 -4.61992 95.8683
lradius 105.405
lwrist 32.3755
lhand -18.4187 8.6481
lfingers 7.12502
lthumb 7.86624 38.4818
rfemur -5.30468 0.951416 26.5737
rtibia 75.0144
rfoot 5.35734 -10.2855
rtoes -1.32534
lfemur -28.7252 5.54999 -22.638
ltibia 18.8766
lfoot 25.303 10.2443
ltoes 4.5317
9
root -12.5297 16.8611 -24.6828 -9.01221 1.00604 -7.60032
lowerback 13.6381 1.41229 3.32742
upperback 2.48498 2.61563 4.57561
thorax -5.09204 1.26782 2.47613
lowerneck -12.6957 -4.19422 -9.39148
upperneck 21.0572 -5.05325 5.73035
head 9.08872 -2.5191 2.93682
rclavicle -5.34234e-015 -4.92986e-014
rhumerus -44.8534 19.2903 -97.0035
rradius 112.233
rwrist -7.20899
rhand -11.2985 24.4605
rfingers 7.12502
rthumb 14.7329 -4.99597
lclavicle -5.34234e-015 -4.92986e-014
lhumerus -71.5366 -5.41025 95.8711
lradius 106.628
lwrist 32.2448
lhand -18.552 8.58807
lfingers 7.12502
lthumb 7.73757 38.4265
rfemur -6.80247 0.0609839 26.0475
rtibia 78.1105
rfoot 3.35361 -12.7208
rtoes 1.39318
lfemur -28.2072 6.23185 -22.8893
ltibia 20.991
lfoot 25.6999 7.15752
ltoes 12.5195
10
root -12.5357 16.7597 -24.1746 -9.86496 1.68759 -7.65717
lowerback 14.2709 1.1188 2.86442
upperback 2.691 2.19046 4.64296
thorax -5.23221 1.06573 2.8773
lowerneck -12.4004 -3.92822 -9.36201
upperneck 20.7317 -4.72369 5.81447
head 8.89436 -2.35635 3.00197
rclavicle -1.24862e-014 3.18055e-015
rhumerus -45.1442 17.9742 -97.4134
rradius 111.54
rwrist -6.93342
rhand -12.153 22.6502
rfingers 7.12502
rthumb 13.9095 -6.86464
lclavicle -1.24862e-014 3.18055e-015
lhumerus -71.0503 -5.49099 95.8505
lradius 107.987
lwrist 32.4407
lhand -18.5757 8.68339
lfingers 7.12502
lthumb 7.71474 38.5227
rfemur -8.24888 -1.41457 25.2524
rtibia 81.058
rfoot 1.1981 -14.6468
rtoes 5.5047
lfemur -27.7949 6.83564 -23.3178
ltibia 23.7813
lfoot 22.4133 2.48165
ltoes 17.5076
11
root -12.5233 16.6594 -23.6671 -10.2821 2.10013 -7.61064
lowerback 14.5291 0.895679 2.59797
upperback 2.80096 1.86256 4.62451
thorax -5.25435 0.908349 3.0677
lowerneck -12.2872 -3.87196 -9.55779
upperneck 20.4655 -4.64199 5.98036
head 8.78432 -2.31652 3.09999
rclavicle -2.19036e-014 -3.49861e-014
rhumerus -44.8892 16.907 -97.6943
rradius 110.338
rwrist -6.47313
rhand -12.9064 21.1895
rfingers 7.12502
rthumb 13.1834 -8.37373
lclavicle -2.19036e-014 -3.49861e-014
lhumerus -70.1561 -5.70111 95.8003
lradius 109.149
lwrist 32.6998
lhand -18.6017 9.02301
lfingers 7.12502
lthumb 7.68958 38.8632
rfemur -10.6353 -2.57044 24.2135
rtibia 83.6247
rfoot -0.331968 -16.1438
rtoes 8.35751
lfemur -27.7745 7.3478 -23.7688
ltibia 27.1788
lfoot 16.8154 -0.682041
ltoes 15.3743
12
root -12.5053 16.5592 -23.1697 -10.7436 1.45767 -6.37091
lowerback 15.1801 1.19658 1.14106
upperback 2.90238 2.04034 4.3426
thorax -5.549 1.01625 3.55465
lowerneck -12.5127 -3.7886 -9.765
upperneck 20.6544 -4.49794 6.1221
head 8.88648 -2.24888 3.20068
rclavicle -2.50966e-014 -3.57812e-014
rhumerus -44.5488 15.9013 -97.8605
rradius 108.82
rwrist -6.20313
rhand -13.1436 21.5439
rfingers 7.12502
rthumb 12.9548 -8.03396
lclavicle -2.50966e-014 -3.57812e-014
lhumerus -68.8884 -6.00927 95.7081
lradius 110.129
lwrist 33.2082
lhand -18.7422 9.45935
lfingers 7.12502
lthumb 7.55402 39.3045
rfemur -13.1354 -2.58624 21.9062
rtibia 85.8503
rfoot -1.61489 -17.1567
rtoes 11.3977
lfemur -27.5179 8.286 -25.0045
ltibia 31.0936
lfoot 11.2121 -0.444546
ltoes 15.6488
13
root -12.5104 16.4343 -22.6903 -11.2815 -0.996548 -4.675
lowerback 15.9858 2.28221 -0.973804
upperback 3.16206 3.11947 4.06431
thorax -5.86594 1.57846 4.22802
lowerneck -12.7108 -3.66936 -9.8162
upperneck 20.535 -4.29752 6.12734
head 8.86575 -2.15407 3.23171
rclavicle -3.04513e-014 -1.51076e-014
rhumerus -44.5201 14.3004 -97.9615
rradius 107.475
rwrist -6.36197
rhand -11.3944 26.593
rfingers 7.12502
rthumb 14.6405 -2.8702
lclavicle -3.04513e-014 -1.51076e-014
lhumerus -67.2651 -6.44222 95.6227
lradius 110.997
lwrist 33.6067
lhand -19.2247 9.82546
lfingers 7.12502
lthumb 7.08821 39.6868
rfemur -16.2009 -0.657279 19.7727
rtibia 87.6804
rfoot -2.02059 -17.9344
rtoes 11.1937
lfemur -27.16 10.2745 -26.0027
ltibia 35.1813
lfoot 5.92897 1.12223
ltoes 18.0697
14
root -12.4893 16.3039 -22.218 -11.3436 -0.240362 -5.26757
lowerback 16.3068 1.795 -0.361369
upperback 3.11633 2.59203 4.17242
thorax -6.02314 1.31104 4.10158
lowerneck -12.6886 -3.47774 -9.68366
upperneck 20.2393 -3.98348 5.82237
head 8.7244 -2.02474 3.13813
rclavicle 1.61761e-014 -3.97569e-016
rhumerus -44.6309 12.856 -97.9422
rradius 106.379
rwrist -7.28763
rhand -13.3741 26.1298
rfingers 7.12502
rthumb 12.7326 -3.46203
lclavicle 1.61761e-014 -3.97569e-016
lhumerus -65.45 -6.78641 95.436
lradius 111.682
lwrist 33.9249
lhand -19.501 10.2255
lfingers 7.12502
lthumb 6.82153 40.0956
rfemur -19.172 -2.19485 19.5456
rtibia 88.5403
rfoot -2.83892 -18.3907
rtoes 11.4278
lfemur -27.4516 9.06945 -25.5006
ltibia 39.1703
lfoot 1.52723 2.11387
ltoes 17.5699
15
root -12.4728 16.1992 -21.758 -11.7607 0.151326 -5.24452
lowerback 17.1489 1.48307 -0.529667
upperback 2.97113 2.17541 4.24966
thorax -6.61375 1.1176 4.36546
lowerneck -12.1815 -3.18412 -9.98013
upperneck 20.2124 -3.53413 5.7011
head 8.58841 -1.8555 3.2021
rclavicle 1.03617e-014 0
rhumerus -44.8585 11.9402 -97.8906
rradius 105.185
rwrist -8.56084
rhand -13.9082 29.3632
rfingers 7.12502
rthumb 12.2176 -0.259938
lclavicle 1.03617e-014 0
lhumerus -63.6091 -6.79736 95.2798
lradius 112.016
lwrist 34.3591
lhand -19.4019 10.7309
lfingers 7.12502
lthumb 6.91723 40.5979
rfemur -21.637 -3.09975 18.8124
rtibia 88.5565
rfoot -3.70091 -18.0741
rtoes 10.4829
lfemur -27.3367 8.58329 -25.5902
ltibia 43.0484
lfoot -2.34638 3.4049
ltoes 16.5956
